<svg width="60" height="57" viewBox="0 0 60 57" fill="none" xmlns="http://www.w3.org/2000/svg">
<path d="M55.2552 10.4066C64.2019 24.3882 60.131 42.9742 46.1307 51.9303C41.7883 54.7097 36.9968 56.2352 32.1865 56.5814C56.5092 40.9528 51.9423 16.6113 51.7926 15.8533C49.9302 39.081 36.9874 47.2136 25.542 49.7965C24.316 46.7269 23.5019 43.5544 23.0994 40.3725C22.332 34.7481 22.828 29.0207 24.4564 23.6302C27.0955 14.8613 32.7668 6.97208 41.0865 1.6471C42.0317 1.0388 42.9675 0.486641 43.9502 0C48.4048 2.33962 52.3447 5.85842 55.2552 10.4066Z" fill="#20B84F"/>
<path d="M3.52095 23.967C3.52095 23.967 3.75491 38.7815 19.7111 44.9675L19.8609 45.6693C18.9999 45.66 18.1483 45.5851 17.2779 45.4541C6.11325 43.676 -1.51392 33.1945 0.254836 22.0298C0.825703 18.4081 2.32306 15.1326 4.46616 12.4467C5.20548 12.5029 5.9448 12.5777 6.70283 12.7088C12.4302 13.6165 17.4464 16.2463 21.3114 20.0084C18.9812 26.316 18.1015 33.129 18.8595 39.9232C12.945 38.7066 6.78707 34.6076 3.52095 23.967Z" fill="#20B84F"/>
</svg>
