<svg width="19" height="58" viewBox="0 0 19 58" fill="none" xmlns="http://www.w3.org/2000/svg">
<path d="M13.8162 6.6777C14.0714 8.00638 14.1601 8.17835 14.8081 9.15223C15.4562 10.1261 17.2319 12.3581 17.2319 15.5639C17.2319 18.7698 17.2319 22.7377 17.2319 23.4056C17.2319 25.2376 16.278 25.8295 16.278 26.4196C16.278 27.0097 16.7938 27.4116 16.64 29.1295C16.4879 30.8473 15.8001 36.2471 16.278 40.2531C16.7558 44.259 17.0599 46.3208 17.0418 48.3428C17.0219 50.3648 16.9368 52.6022 15.8164 53.7516C15.8164 53.7516 15.5358 54.2096 15.4055 54.4956C15.277 54.7816 14.2416 55.6921 13.1157 55.7935C13.1157 55.7935 12.7428 55.808 12.5292 55.7175C12.5292 55.7175 12.4532 55.8895 12.2287 56.0125C12.0043 56.1356 10.2213 56.3854 9.20767 56.1556C8.19401 56.3836 6.41105 56.1356 6.18659 56.0125C5.96214 55.8895 5.88612 55.7175 5.88612 55.7175C5.67071 55.808 5.29964 55.7935 5.29964 55.7935C4.17375 55.694 3.13837 54.7816 3.00985 54.4956C2.88133 54.2096 2.59896 53.7516 2.59896 53.7516C1.4785 52.6022 1.39161 50.3648 1.37351 48.3428C1.3536 46.3208 1.65951 44.259 2.13738 40.2531C2.61525 36.2471 1.92741 30.8473 1.77536 29.1295C1.62331 27.4116 2.13738 27.0115 2.13738 26.4196C2.13738 25.8277 1.18164 25.2376 1.18164 23.4056C1.18164 22.7377 1.18164 18.7698 1.18164 15.5639C1.18164 12.3581 2.95555 10.1261 3.60538 9.15223C4.25521 8.17835 4.3439 8.00819 4.59732 6.6777L4.69325 5.2024V4.9544L4.22987 4.82045C4.22987 4.82045 3.86784 1.43721 4.56655 1.258C5.26525 1.07879 9.22034 1.0625 9.22034 1.0625H9.19319C9.19319 1.0625 13.1483 1.08241 13.8488 1.25981C14.5475 1.43721 14.1855 4.78243 14.1855 4.78243L13.7221 4.9544V5.2024L13.8162 6.6777Z" stroke="#B9B9B9" stroke-width="2" stroke-miterlimit="10"/>
<path d="M2.13477 26.4189C2.13477 26.4189 4.4861 27.2625 9.20687 27.2625C13.9276 27.2625 16.279 26.4189 16.279 26.4189" stroke="#B9B9B9" stroke-width="2" stroke-miterlimit="10"/>
<path d="M4.69067 4.9541C4.69067 4.9541 5.70615 5.34148 9.20509 5.34148C12.704 5.34148 13.7195 4.9541 13.7195 4.9541" stroke="#B9B9B9" stroke-width="2" stroke-miterlimit="10"/>
</svg>
