<svg width="24" height="75" viewBox="0 0 24 75" fill="none" xmlns="http://www.w3.org/2000/svg">
<path d="M18.1793 8.61799C18.5214 10.3641 18.6403 10.5901 19.509 11.8699C20.3776 13.1497 22.7579 16.0828 22.7579 20.2958C22.7579 24.5088 22.7579 29.7232 22.7579 30.601C22.7579 33.0084 21.4792 33.7863 21.4792 34.5618C21.4792 35.3373 22.1707 35.8654 21.9645 38.123C21.7606 40.3805 20.8386 47.4766 21.4792 52.741C22.1197 58.0054 22.5274 60.715 22.5031 63.3722C22.4764 66.0293 22.3624 68.9696 20.8605 70.4802C20.8605 70.4802 20.4844 71.082 20.3097 71.4579C20.1374 71.8337 18.7495 73.0303 17.2403 73.1635C17.2403 73.1635 16.7405 73.1826 16.4541 73.0636C16.4541 73.0636 16.3522 73.2896 16.0514 73.4514C15.7505 73.6131 13.3605 73.9414 12.0017 73.6393C10.643 73.939 8.25298 73.6131 7.95211 73.4514C7.65124 73.2896 7.54933 73.0636 7.54933 73.0636C7.26059 73.1826 6.76318 73.1635 6.76318 73.1635C5.25397 73.0327 3.86608 71.8337 3.69381 71.4579C3.52154 71.082 3.14302 70.4802 3.14302 70.4802C1.64109 68.9696 1.52462 66.0293 1.50036 63.3722C1.47367 60.715 1.88373 58.0054 2.52429 52.741C3.16486 47.4766 2.24283 40.3805 2.03902 38.123C1.8352 35.8654 2.52429 35.3397 2.52429 34.5618C2.52429 33.7839 1.24316 33.0084 1.24316 30.601C1.24316 29.7232 1.24316 24.5088 1.24316 20.2958C1.24316 16.0828 3.62102 13.1497 4.49209 11.8699C5.36316 10.5901 5.48205 10.3664 5.82175 8.61799L5.95034 6.67922V6.35331L5.32919 6.17728C5.32919 6.17728 4.84391 1.73119 5.7805 1.49569C6.71708 1.26018 12.0187 1.23877 12.0187 1.23877H11.9823C11.9823 1.23877 17.284 1.26494 18.223 1.49806C19.1596 1.73119 18.6743 6.12732 18.6743 6.12732L18.0531 6.35331V6.67922L18.1793 8.61799Z" stroke="#B9B9B9" stroke-width="2" stroke-miterlimit="10"/>
<path d="M2.52148 34.561C2.52148 34.561 5.67335 35.6696 12.0014 35.6696C18.3294 35.6696 21.4812 34.561 21.4812 34.561" stroke="#B9B9B9" stroke-width="2" stroke-miterlimit="10"/>
<path d="M5.94727 6.35254C5.94727 6.35254 7.30847 6.86162 11.9987 6.86162C16.6889 6.86162 18.0501 6.35254 18.0501 6.35254" stroke="#B9B9B9" stroke-width="2" stroke-miterlimit="10"/>
</svg>
