<svg width="42" height="83" viewBox="0 0 42 83" fill="none" xmlns="http://www.w3.org/2000/svg">
<path d="M20.8652 81.3804C20.8652 81.3804 25.0439 81.3339 26.0042 81.2563C26.9628 81.1788 27.9576 80.6824 27.9576 80.6824C27.9576 80.6824 28.0608 80.9151 29.1571 81.1012C30.2534 81.2873 33.131 81.1012 36.2133 80.5428C39.2957 79.9844 40.392 75.8844 40.392 73.1511C40.392 70.4178 40.5744 33.7504 40.392 26.6275C40.2096 19.5046 26.6668 11.6579 26.6668 11.6579C27.0557 11.4511 27.0781 11.0995 27.0781 11.0995V9.6915V8.44892L25.9818 8.05598C25.9818 8.05598 25.9818 6.27569 25.8218 5.38469C25.6617 4.49368 22.0303 4.43164 20.8652 4.43164C19.7001 4.43164 16.0687 4.49368 15.9086 5.38469C15.7486 6.27569 15.7486 8.05598 15.7486 8.05598L14.6523 8.44892V9.6915V11.0995C14.6523 11.0995 14.6747 11.4511 15.0636 11.6579C15.0636 11.6579 1.52083 19.5046 1.3384 26.6275C1.15597 33.7504 1.3384 70.4178 1.3384 73.1511C1.3384 75.8844 2.4347 79.9844 5.51706 80.5428C8.59942 81.1012 11.477 81.2873 12.5733 81.1012C13.6696 80.9151 13.7728 80.6824 13.7728 80.6824C13.7728 80.6824 14.7659 81.1788 15.7262 81.2563C16.6865 81.3339 20.8652 81.3804 20.8652 81.3804Z" stroke="#B9B9B9" stroke-width="2" stroke-miterlimit="10"/>
<path d="M15.064 11.6575C15.064 11.6575 17.9639 11.3887 20.8656 11.3887C23.7672 11.3887 26.6671 11.6575 26.6671 11.6575" stroke="#B9B9B9" stroke-width="2" stroke-miterlimit="10"/>
<path d="M27.2316 11.3891H14.4994C13.9659 11.3891 13.5339 10.9566 13.5339 10.4223V3.92848C13.5339 2.36534 14.7989 1.09863 16.3599 1.09863H25.3712C26.9321 1.09863 28.1971 2.36534 28.1971 3.92848V10.4223C28.1971 10.9566 27.7651 11.3891 27.2316 11.3891Z" stroke="#B9B9B9" stroke-width="2" stroke-miterlimit="10"/>
<path d="M1.33862 26.627C1.33862 26.627 9.51523 27.3939 20.8654 27.3939C32.2156 27.3939 40.3922 26.627 40.3922 26.627" stroke="#B9B9B9" stroke-width="2" stroke-miterlimit="10"/>
<path d="M1.33862 73.1514C1.33862 73.1514 8.23651 73.9183 20.8654 73.9183C33.4943 73.9183 40.3922 73.1514 40.3922 73.1514" stroke="#B9B9B9" stroke-width="2" stroke-miterlimit="10"/>
</svg>
