<svg width="35" height="75" viewBox="0 0 35 75" fill="none" xmlns="http://www.w3.org/2000/svg">
<path d="M17.1924 73.3877C17.1924 73.3877 20.5896 73.3462 21.37 73.2765C22.1504 73.2069 22.9575 72.7656 22.9575 72.7656C22.9575 72.7656 23.041 72.973 23.9317 73.1389C24.8223 73.3047 27.1617 73.1389 29.6683 72.6412C32.1748 72.1436 33.0654 68.4944 33.0654 66.061C33.0654 63.6276 33.2142 30.9884 33.0654 24.647C32.9167 18.3056 21.9064 11.3223 21.9064 11.3223C22.2222 11.1382 22.2406 10.8247 22.2406 10.8247V9.57064V8.46425L21.3499 8.11426C21.3499 8.11426 21.3499 6.52849 21.2196 5.73727C21.0893 4.94605 18.1382 4.88965 17.1908 4.88965C16.2433 4.88965 13.2923 4.94439 13.1619 5.73727C13.0316 6.53015 13.0316 8.11426 13.0316 8.11426L12.141 8.46425V9.57064V10.8247C12.141 10.8247 12.1593 11.1382 12.4752 11.3223C12.4752 11.3223 1.46482 18.3073 1.3161 24.647C1.16738 30.9867 1.3161 63.6276 1.3161 66.061C1.3161 68.4944 2.20675 72.1436 4.71328 72.6412C7.21981 73.1389 9.55923 73.3047 10.4499 73.1389C11.3405 72.973 11.4241 72.7656 11.4241 72.7656C11.4241 72.7656 12.2312 73.2085 13.0116 73.2765C13.7936 73.3462 17.1924 73.3877 17.1924 73.3877Z" stroke="#B9B9B9" stroke-width="2" stroke-miterlimit="10"/>
<path d="M12.4749 11.3238C12.4749 11.3238 14.8327 11.085 17.1905 11.085C19.5483 11.085 21.9061 11.3238 21.9061 11.3238" stroke="#B9B9B9" stroke-width="2" stroke-miterlimit="10"/>
<path d="M22.2141 11.0834H12.1696C11.6516 11.0834 11.2322 10.6671 11.2322 10.1529V4.64749C11.2322 3.14301 12.4604 1.92383 13.976 1.92383H20.4094C21.925 1.92383 23.1532 3.14301 23.1532 4.64749V10.1529C23.1516 10.6671 22.7321 11.0834 22.2141 11.0834Z" stroke="#B9B9B9" stroke-width="2" stroke-miterlimit="10"/>
<path d="M1.31787 24.6484C1.31787 24.6484 7.96518 25.3302 17.1925 25.3302C26.4199 25.3302 33.0672 24.6484 33.0672 24.6484" stroke="#B9B9B9" stroke-width="2" stroke-miterlimit="10"/>
<path d="M1.31787 66.0625C1.31787 66.0625 6.92581 66.7442 17.1925 66.7442C27.4593 66.7442 33.0672 66.0625 33.0672 66.0625" stroke="#B9B9B9" stroke-width="2" stroke-miterlimit="10"/>
</svg>
