<svg width="220" height="121" viewBox="0 0 220 121" fill="none" xmlns="http://www.w3.org/2000/svg">
<g clip-path="url(#clip0_344_7059)">
<path d="M91.0386 10.6313C87.4473 11.548 83.9767 12.6949 80.6869 14.0304C82.5296 14.9207 84.5721 15.7394 86.769 16.4524C88.3969 14.0832 89.8817 12.1177 91.0386 10.6313ZM144.165 14.2605C140.607 12.7741 136.846 11.5367 132.931 10.5559C134.114 12.0234 135.716 14.1511 137.51 16.7693C139.929 16.0374 142.16 15.1923 144.161 14.2605H144.165ZM135.69 17.3087C133.067 13.5173 130.915 10.9256 130.033 9.89188C124.652 8.75257 119.015 8.11123 113.2 8.03955V16.9503C116.249 17.0296 119.026 18.0293 121.159 19.7911C126.363 19.3459 131.288 18.5009 135.69 17.3087ZM88.5854 17.0032C93.1111 18.3198 98.2512 19.2629 103.723 19.7534C105.882 16.9239 109.673 16.9239 111.177 16.9239H111.425V8.03955C105.362 8.08482 99.4985 8.75257 93.9063 9.96356C92.7946 11.3066 90.8577 13.7474 88.5891 17.0069L88.5854 17.0032ZM101.586 28.4001C101.79 27.0721 102.05 25.25 102.227 23.79C102.317 22.9902 102.483 22.2659 102.717 21.6359C97.2036 21.0851 92.0183 20.0778 87.4285 18.7084C85.5179 21.5755 83.4454 24.967 81.4632 28.7321C87.4021 28.6528 97.4598 28.4755 101.586 28.4038V28.4001ZM140.713 95.348C137.804 95.4649 134.985 95.5517 132.343 95.5894C126.608 95.6951 120.028 95.8045 113.208 95.8384V99.0262C121.717 99.1168 129.803 100.218 136.526 102.124C137.868 100.113 139.3 97.8492 140.713 95.348ZM122.892 21.5981C124.298 23.4316 125.18 25.6951 125.489 28.2756C127 28.3209 129.261 28.3812 131.722 28.4529C134.868 28.5434 138.648 28.6415 142.623 28.766C140.701 25.0802 138.701 21.7943 136.843 19.0102C132.611 20.2212 127.889 21.1039 122.889 21.6019L122.892 21.5981ZM144.673 28.8264C152.775 29.0754 161.375 29.3621 166.869 29.6526C161.427 23.8579 154.497 18.9498 146.486 15.2829C144.172 16.4939 141.549 17.554 138.652 18.4707C140.607 21.4171 142.699 24.918 144.673 28.8264ZM132.89 110.182C136.617 109.257 140.189 108.08 143.607 106.692C141.704 105.783 139.56 104.976 137.238 104.27C135.565 106.711 134.054 108.714 132.89 110.182ZM78.9535 28.7736C79.1118 28.7736 79.2813 28.766 79.4434 28.766C81.4783 24.7671 83.6413 21.1794 85.6498 18.1462C82.9555 17.2371 80.5098 16.1883 78.3769 15.0226C75.9313 16.1166 73.5836 17.3201 71.3528 18.6367C72.943 19.146 74.3674 19.9986 75.5318 21.1832C77.3896 23.0619 78.5804 25.7593 78.9573 28.7773L78.9535 28.7736ZM138.324 102.659C141.116 103.542 143.641 104.572 145.819 105.741C152.632 102.704 158.695 98.781 163.749 94.1747C157.033 94.5859 149.723 95.0009 142.823 95.2688C141.312 97.9925 139.782 100.467 138.324 102.659ZM86.4148 95.4913C85.3484 95.4461 84.3083 95.4008 83.2758 95.3744C84.7266 97.902 86.1736 100.218 87.5453 102.248C94.4112 100.245 102.717 99.1055 111.422 99.0262V95.8573C110.442 95.8648 109.454 95.8648 108.478 95.8648C100.384 95.8648 93.1752 95.7403 86.4148 95.4913ZM113.2 100.905V112.683C119.015 112.611 124.645 111.97 130.026 110.842C131.066 109.604 133.048 107.156 135.415 103.738C128.974 101.991 121.302 100.977 113.2 100.909V100.905ZM81.1768 95.2952C71.3867 94.9028 63.6842 94.5482 60.8052 94.4048C65.8208 98.9357 71.8238 102.791 78.5541 105.764C80.653 104.651 83.0798 103.655 85.7591 102.78C84.2819 100.581 82.7105 98.0718 81.1806 95.2914L81.1768 95.2952ZM80.7962 106.737C84.0596 108.065 87.4737 109.186 91.0235 110.084C89.9043 108.658 88.4535 106.737 86.8369 104.395C84.6399 105.089 82.6126 105.873 80.8 106.737H80.7962ZM93.9025 110.77C99.4947 111.974 105.358 112.641 111.422 112.694V100.909C103.116 100.973 95.2176 102.029 88.6457 103.863C90.967 107.183 92.9039 109.571 93.9025 110.77Z" fill="#009D3A"/>
<path d="M112.318 2.80301C138.206 2.80301 160.933 13.6982 173.704 30.0447C174.932 30.1088 176.123 30.1616 177.261 30.2145C164.279 12.159 140.037 0 112.318 0C84.7936 0 60.6876 12.0005 47.6416 29.8259C48.9228 29.7731 50.1212 29.7353 51.1989 29.6938C64.015 13.5548 86.61 2.80679 112.318 2.80679V2.80301ZM112.318 117.919C88.2078 117.919 66.8413 108.465 53.6973 93.9708C52.3709 93.8802 51.0821 93.801 49.8272 93.7218C63.284 109.985 86.2595 120.726 112.318 120.726C138.515 120.726 161.611 109.857 175.03 93.4388C173.802 93.5181 172.513 93.6162 171.179 93.6954C158.073 108.34 136.578 117.919 112.318 117.919Z" fill="#009D3A"/>
<path d="M71.5281 26.5663C70.5484 25.212 69.09 24.5178 67.3566 24.5971C65.7475 24.6763 64.1384 24.7668 62.5293 24.8649C62.1902 24.8913 61.9151 25.1328 61.8548 25.4685C58.2975 45.3499 55.6936 63.2771 53.8885 80.2461C53.6737 82.1701 54.1636 83.9847 55.2414 85.3844C56.3078 86.7727 57.8114 87.6026 59.4657 87.7007C61.0861 87.8177 62.6951 87.9044 64.3118 87.995H64.3457C64.7112 87.995 65.0315 87.7083 65.0654 87.3272C66.7649 70.3394 69.2257 52.1594 72.5606 31.7725C72.881 29.7692 72.5154 27.9282 71.5281 26.5626V26.5663ZM197.877 40.3098C196.987 39.1063 195.103 37.9142 193.385 37.6728C190.434 37.254 182.306 36.7485 176.846 36.6655C173.563 36.6655 170.771 39.3289 170.338 42.8978C170.24 43.8145 168.133 57.1166 167.636 61.8323C167.199 65.9444 170.153 68.0381 173.273 68.0457C173.273 68.0457 180.671 68.0268 183.553 67.9664C183.214 69.898 182.717 72.7312 182.442 74.2176C180.682 74.3232 178.922 74.4062 177.17 74.4854C177.17 74.4854 177.26 73.8969 177.26 73.5876C177.26 71.4334 175.711 69.7584 173.729 69.7584L166.641 69.981C166.287 69.9999 165.982 70.2753 165.94 70.6412C165.405 73.8743 164.862 77.1036 164.293 80.3631C163.947 82.2946 164.312 84.0753 165.288 85.3844C166.204 86.6293 167.602 87.3159 169.219 87.3159C169.324 87.3159 178.564 86.8443 186.353 85.954C189.413 85.6145 192.541 82.5889 193.46 79.0804C194.644 74.6024 195.495 70.4262 196.449 62.3151C196.705 60.2214 196.369 58.8708 195.265 57.5164C194.218 56.2451 192.722 55.5472 191.041 55.5472H180.486C180.618 54.7474 181.428 49.9562 181.564 49.0206C182.932 49.0546 186.738 49.1527 186.738 49.1527C186.738 49.1527 186.632 49.5186 186.658 50.0694C186.756 52.1632 188.437 53.8872 190.4 53.9061C192.631 53.925 194.866 53.9589 197.131 53.9853C197.556 53.9778 197.816 53.7099 197.877 53.3251C198.303 50.5825 198.721 47.7342 199.12 44.8482C199.377 42.8525 198.71 41.4114 197.877 40.2985V40.3098ZM167.64 36.5108C167.515 36.3599 167.312 36.2543 167.116 36.243L161.61 36.0204C158.418 36.0204 155.66 38.763 155.208 42.396C153.908 52.9101 152.363 63.7449 150.486 75.4889L145.339 75.6398C147.151 64.0392 148.674 53.3364 149.962 42.9581C150.211 40.9888 149.766 39.129 148.707 37.7218C147.649 36.3146 146.156 35.5149 144.476 35.462C142.848 35.4281 141.212 35.3715 139.603 35.3451C139.211 35.3375 138.91 35.6318 138.857 36.0053C137.222 49.5375 135.228 63.9939 132.571 81.525C132.278 83.4641 132.662 85.2901 133.649 86.6972C134.644 88.0591 136.087 88.825 137.711 88.825L137.9 88.8174C143.451 88.6288 149.043 88.3911 154.556 88.0968C157.729 87.9195 160.728 84.9354 161.35 81.3402C164.116 65.5558 166.223 51.0955 167.817 37.1107C167.843 36.8805 167.771 36.673 167.647 36.5146L167.64 36.5108ZM46.8041 53.925L53.7416 53.8797C54.1146 53.8608 54.4161 53.593 54.4726 53.2195C54.9625 49.9977 55.4863 46.7646 56.0214 43.5316C56.3417 41.5359 55.9423 39.6873 54.9097 38.3405C53.9601 37.039 52.4829 36.3637 50.6854 36.3637C46.4536 36.3637 39.241 36.6655 33.6111 37.2276C30.4532 37.5558 26.4513 40.5399 25.8219 44.0371C23.5195 56.7242 21.3301 74.1535 21.3301 78.4089C21.3301 79.4313 21.4808 82.0042 22.8336 83.6452C23.9528 85.0147 25.7692 85.4787 27.3783 85.7654C32.0811 86.584 40.5486 87.2706 44.1775 87.2706H44.4639C48.0476 87.2178 50.0486 85.3202 50.742 81.261C51.6388 75.919 53.3459 61.3909 53.5004 60.2327C53.6888 58.8368 53.4476 57.739 52.8259 56.9657C52.1513 56.181 51.1113 55.7735 49.6868 55.7735L38.721 55.7924C38.3667 55.7924 38.0464 56.0678 37.9824 56.4526C37.9824 56.4526 37.2702 61.0362 36.9687 63.1828C36.818 64.3486 37.1458 65.5596 37.9032 66.4499C38.5514 67.2685 39.4671 67.7325 40.4092 67.7778L40.9443 67.7854C40.8199 68.5323 40.0286 72.9236 39.7271 74.6854C38.4911 74.6137 34.2856 74.3572 33.547 74.3308C33.9917 69.9772 36.4562 52.7668 37.1043 49.1376C38.2348 49.1187 42.3763 49.0734 43.2053 49.0659C43.1337 49.5639 43.1073 50.0015 43.1073 50.0015C43.1525 52.1632 44.7955 53.9287 46.8154 53.9287L46.8041 53.925ZM86.3867 76.0397C84.5364 75.9945 82.6862 75.9605 80.8472 75.9228C81.3899 71.1958 83.9599 52.099 84.5553 48.1379C86.4055 48.119 88.2633 48.0926 90.1136 48.0926C89.3938 53.0158 86.8766 71.8635 86.3867 76.0397ZM101.486 37.2314C100.473 35.8355 98.9955 35.0584 97.2696 35.0584C91.7113 35.1112 86.0664 35.2017 80.5156 35.3262C77.2598 35.4168 74.2639 38.4084 73.6949 42.1357C71.562 56.1319 69.8814 68.8455 68.5021 81.0157C68.3062 82.8869 68.7697 84.7091 69.8286 86.1351C70.9063 87.5762 72.4325 88.4062 74.1245 88.4854C79.7544 88.7344 85.3466 88.923 90.7617 89.0475L90.8785 89.0551C94.0176 89.0551 96.8551 86.154 97.3186 82.4418C99.0257 68.8115 100.883 55.2152 102.636 42.5846C102.93 40.5625 102.511 38.6687 101.49 37.2351L101.486 37.2314ZM133.57 37.3747C132.522 35.9487 131.026 35.1678 129.338 35.1414C125.762 35.0886 122.205 35.0433 118.632 35.0169C118.776 33.9681 119.149 31.0746 119.149 31.0746C119.405 29.0713 118.979 27.1662 117.947 25.7251C116.933 24.299 115.429 23.4992 113.76 23.4917H108.94C108.586 23.4917 108.273 23.7595 108.228 24.133C107.384 30.4106 102.146 68.77 100.492 81.7514C100.243 83.6905 100.661 85.5617 101.675 86.9877C102.722 88.4552 104.245 89.2588 105.952 89.2777C107.312 89.2777 118.463 89.2513 122.574 89.1871C125.766 89.1343 128.709 86.1502 129.263 82.3776C131.539 67.0723 133.299 54.4758 134.802 42.7054C135.059 40.721 134.644 38.8309 133.574 37.3823L133.57 37.3747ZM118.614 76.217C116.775 76.2359 114.932 76.2434 113.082 76.2434C113.082 76.2434 116.541 50.9145 116.914 48.0322C118.719 48.0398 122.48 48.0511 122.48 48.0511C121.847 52.9403 119.171 72.2144 118.61 76.2208L118.614 76.217Z" fill="#EE7100"/>
<path d="M71.1259 31.5158C67.8248 51.6726 65.3905 69.6375 63.6909 86.4443C62.3042 86.3651 60.925 86.2934 59.5571 86.2142C58.3135 86.1236 57.1906 85.5125 56.3841 84.4524C55.54 83.3659 55.167 81.9399 55.3252 80.4271C57.1039 63.6543 59.6814 45.9458 63.186 26.3323C64.5916 26.2531 67.6326 26.1097 67.6326 26.1097C68.7631 26.1097 69.7127 26.5813 70.3722 27.4905C71.1183 28.5053 71.3859 29.9313 71.1296 31.5158H71.1259ZM197.637 44.6556C197.271 47.2926 196.89 49.907 196.517 52.4384C194.471 52.412 192.444 52.3856 190.409 52.3667C189.226 52.3479 188.219 51.2878 188.159 50.0164C188.14 49.5637 188.446 48.6093 188.446 48.6093C188.498 48.3867 188.472 48.1302 188.321 47.9415C188.189 47.7265 187.967 47.6209 187.733 47.6133C187.733 47.6133 182.514 47.4813 180.932 47.4436C180.532 47.4247 180.219 47.7303 180.174 48.1188C180.069 48.8847 178.983 55.3131 178.848 56.2034C178.814 56.426 178.874 56.6675 179.025 56.8372C179.168 57.0145 179.371 57.1051 179.586 57.1051H191.031C192.267 57.1051 193.359 57.6106 194.109 58.5311C194.84 59.4139 195.187 60.2476 194.953 62.1264C194.011 70.1393 193.156 74.2514 191.992 78.6577C191.253 81.4985 188.577 84.1166 186.177 84.392C178.422 85.2748 169.449 85.7464 169.449 85.7464C168.195 85.8105 167.147 85.354 166.461 84.4297C165.741 83.4753 165.481 82.1323 165.749 80.6534C166.284 77.5901 166.789 74.572 167.286 71.5351C169.404 71.4635 171.529 71.3918 173.708 71.3125C174.846 71.3125 175.727 72.3274 175.735 73.6025C175.735 74.1005 175.52 75.2134 175.52 75.2134C175.501 75.4435 175.565 75.6849 175.716 75.8623C175.859 76.0207 176.089 76.1301 176.312 76.1112C178.569 75.9943 180.818 75.8811 183.098 75.7566C183.437 75.7378 183.731 75.4699 183.792 75.1228C184.048 73.7534 184.851 69.3621 185.186 67.2985C185.22 67.0571 185.16 66.8194 185.009 66.6572C184.858 66.4799 184.643 66.3818 184.413 66.3894C182.405 66.4535 173.252 66.4874 173.252 66.4874C170.689 66.4874 168.843 64.6615 169.118 61.9302C169.589 57.2824 171.707 44.0256 171.812 43.0749C172.14 40.3134 174.292 38.2234 176.828 38.2234C184.217 38.3668 190.168 38.827 193.182 39.2194C194.411 39.3778 195.941 40.287 196.623 41.2226C197.414 42.2638 197.814 43.305 197.637 44.6594V44.6556ZM159.923 81.0495C159.426 83.9619 156.972 86.4254 154.47 86.5688C148.976 86.8631 143.391 87.1045 137.848 87.2818L137.705 87.2894C136.514 87.2894 135.515 86.7536 134.807 85.7766C134.05 84.7165 133.767 83.2829 134.008 81.7512C136.612 64.5068 138.598 50.2013 140.215 36.854C141.62 36.8804 143.014 36.9181 144.431 36.9445C145.667 36.9898 146.787 37.5783 147.552 38.6271C148.369 39.7136 148.716 41.1736 148.531 42.7392C147.197 53.3702 145.641 64.3371 143.772 76.2772C143.727 76.4998 143.791 76.7299 143.93 76.8922C144.073 77.0619 144.284 77.1487 144.492 77.1487C146.715 77.0959 148.931 77.0318 151.124 76.9601C151.471 76.9412 151.765 76.6734 151.825 76.3187C153.754 64.3258 155.329 53.2873 156.645 42.5694C156.999 39.6834 159.143 37.5217 161.607 37.5217L166.276 37.7179C164.701 51.4198 162.621 65.6009 159.919 81.0495H159.923ZM36.4534 47.602C36.1142 47.6095 35.8316 47.851 35.7525 48.1905C35.3267 49.9712 32.1047 72.2821 31.9804 75.0134C31.9615 75.4397 32.2743 75.8132 32.6813 75.8245C33.6309 75.8774 38.8877 76.1905 40.2858 76.2622C40.6664 76.2697 40.998 76.0056 41.0696 75.6284C41.4351 73.4667 42.3848 68.1926 42.5355 67.1514C42.5807 66.9288 42.5166 66.7138 42.3772 66.5478C42.2453 66.378 42.0494 66.2724 41.8346 66.2724L40.4403 66.2385C39.9316 66.2045 39.4078 65.9366 39.0272 65.4538C38.5561 64.8917 38.3413 64.1258 38.4393 63.4053C38.7332 61.3115 39.0272 59.4063 39.3475 57.3503L49.6991 57.3314C50.6525 57.3314 51.327 57.554 51.6812 57.9728C52.0204 58.3991 52.1334 59.0781 51.994 60.0213C51.8508 61.2134 50.1513 75.7 49.2657 80.9967C48.7043 84.309 47.31 85.6785 44.4385 85.7049H44.1822C40.6174 85.7049 32.2668 85.0296 27.643 84.2374C26.211 83.9884 24.7979 83.6224 23.9689 82.634C23.1323 81.6267 22.8384 79.7933 22.8384 78.405C22.8384 74.6135 24.8394 57.8483 27.2926 44.3236C27.8088 41.5206 31.1966 39.0534 33.7666 38.7855C39.3324 38.2159 46.4922 37.9216 50.6902 37.9216C51.6059 37.9216 52.8871 38.1517 53.7576 39.3024C54.5037 40.3096 54.7977 41.7168 54.5489 43.2824C54.0515 46.3005 53.5616 49.3185 53.0981 52.3177L46.7937 52.363C45.6105 52.363 44.6231 51.284 44.5892 49.9787C44.6081 49.7637 44.9698 47.5303 44.9698 47.5303C44.9698 47.5303 37.7572 47.5567 36.4609 47.602H36.4534ZM90.9586 46.5796C88.611 46.5985 86.2633 46.606 83.9231 46.6136C83.5765 46.6211 83.2825 46.889 83.2222 47.2285C82.868 49.2129 79.5858 73.6327 79.3182 76.5904C79.2994 76.7865 79.371 76.9903 79.4953 77.1525C79.6272 77.3109 79.8232 77.409 80.0191 77.409C82.348 77.4618 84.6806 77.5146 87.0283 77.5524H87.0358C87.4089 77.5524 87.7292 77.2506 87.7669 76.8658C87.944 74.9153 91.2073 50.4503 91.6897 47.4511C91.7236 47.2285 91.6709 47.0059 91.5201 46.8475C91.3769 46.6702 91.1734 46.5532 90.9586 46.5796ZM101.205 42.3695C99.4525 55.0113 97.6022 68.5888 95.8952 82.2379C95.5146 85.2031 93.3176 87.5346 90.887 87.5346H90.7891C85.4003 87.4176 79.8081 87.2215 74.1858 86.9725C72.9309 86.9196 71.7929 86.2972 70.9827 85.1994C70.1574 84.094 69.7919 82.6717 69.9615 81.1929C71.3143 69.0301 73.01 56.3543 75.1278 42.3845C75.5989 39.3212 77.9729 36.9106 80.5429 36.8276C86.1012 36.7219 91.7387 36.6125 97.3234 36.5597C98.5255 36.5597 99.5919 37.1218 100.33 38.1366C101.114 39.2495 101.435 40.7435 101.201 42.3657L101.205 42.3695ZM133.36 42.5015C131.856 54.253 130.097 66.8496 127.828 82.136C127.376 85.1994 125.062 87.6213 122.545 87.6553C117.137 87.7345 111.507 87.7722 105.968 87.7345C104.724 87.727 103.62 87.1385 102.848 86.0708C102.049 84.9579 101.729 83.4904 101.932 81.8682C103.586 68.9698 108.76 31.0329 109.57 24.9893H113.75C114.959 24.9968 116.037 25.5665 116.783 26.619C117.593 27.7319 117.914 29.2447 117.699 30.8669C117.699 30.8669 117.254 34.3037 117.077 35.6732C117.051 35.8769 117.111 36.0919 117.254 36.2692C117.386 36.439 117.582 36.5371 117.797 36.5371C121.637 36.5559 125.48 36.5899 129.32 36.6616C130.549 36.6691 131.634 37.2576 132.407 38.2989C133.224 39.4193 133.563 40.9057 133.36 42.5015ZM123.321 46.5419C123.321 46.5419 118.305 46.5155 116.286 46.5155C115.931 46.5155 115.619 46.8022 115.566 47.1757C115.396 48.5187 111.53 76.911 111.53 76.911C111.511 77.1261 111.564 77.3486 111.707 77.4995C111.839 77.6693 112.046 77.7674 112.257 77.7674C114.579 77.7674 116.919 77.7485 119.248 77.7335C119.602 77.7259 119.907 77.4467 119.967 77.0997C120.224 75.3454 123.675 50.3296 124.041 47.4096C124.06 47.187 124.015 46.9569 123.864 46.8135C123.713 46.6362 123.525 46.5457 123.321 46.5457V46.5419Z" fill="#EE7100"/>
</g>
<defs>
<clipPath id="clip0_344_7059">
<rect width="177.112" height="120.722" fill="white" transform="translate(21.4438)"/>
</clipPath>
</defs>
</svg>
