<svg width="220" height="121" viewBox="0 0 220 121" fill="none" xmlns="http://www.w3.org/2000/svg">
<path d="M51.1228 27.7652C46.1348 25.4717 40.6914 24.34 35.2026 24.4553C29.7138 24.5705 24.3227 25.9298 19.4354 28.4306C14.3411 31.0657 9.94081 34.8663 6.59277 39.5232C6.68593 40.1886 6.77909 40.854 6.91218 41.5594C7.08519 42.3912 7.2715 43.2163 7.49775 44.0481C9.64918 52.1897 14.5958 59.3152 21.4716 64.1771C23.5535 55.7302 28.4068 48.2249 35.2559 42.8607C42.105 37.4965 50.5545 34.583 59.2542 34.5858C59.8598 34.5858 60.4586 34.5858 61.0642 34.6257C58.1612 31.7943 54.7999 29.4747 51.1228 27.7652Z" fill="#FECC00"/>
<path d="M40.9018 87.1007L40.7887 87.2537L40.3894 87.8792V87.9191C40.2763 88.0722 40.1831 88.2186 40.07 88.3716L39.9569 88.5446L39.7706 88.8108L39.7107 88.884L39.6375 89.0171L39.5244 89.1701L39.4113 89.3232L39.2981 89.4762L39.2582 89.5361L39.1451 89.6692L38.9588 89.9154L38.7525 90.1616V90.2015L38.5462 90.4477L38.5063 90.4877L38.32 90.7538H38.28L38.0738 90.9801L38.0338 91.0399L37.8276 91.2862V91.3261V91.366L37.6213 91.5923L37.3751 91.8584L37.1089 92.1446L36.8427 92.4307L36.5965 92.6969H36.5566L36.3104 92.963L36.0243 93.2492C35.3588 93.9146 34.76 94.4735 34.1411 95.0059L34.1012 95.0458H34.0613H34.0213H33.9814L33.9215 95.0857L33.8616 95.1456H33.8217L33.7618 95.1855L33.7219 95.2255H33.682L33.6088 95.2986H33.5689L33.509 95.3585C28.5834 94.9923 23.785 93.6219 19.409 91.3315C15.033 89.0411 11.1722 85.8792 8.06414 82.0406C4.9561 78.202 2.66663 73.7678 1.33671 69.0111C0.00678002 64.2544 -0.335461 59.2758 0.331052 54.3819C1.04139 50.382 2.41081 46.5279 4.38347 42.9766C4.49659 43.5621 4.64964 44.1677 4.79603 44.7466C7.17413 53.6184 12.6148 61.3625 20.1546 66.6079C27.6945 71.8533 36.8472 74.2615 45.9923 73.4063C45.4488 76.8889 44.4067 80.2752 42.8981 83.4608C42.2957 84.7076 41.6294 85.9225 40.9018 87.1007Z" fill="#EF7F1A"/>
<path d="M40.0698 42.8834C44.9054 39.8332 50.403 37.9893 56.0998 37.5068C56.4392 37.4669 56.7652 37.4469 57.1179 37.4336H57.4573H57.7966C58.0029 37.4336 58.2292 37.4336 58.4621 37.4336H59.2007C60.0857 37.4336 60.9374 37.4336 61.7692 37.5068H61.8091H62.0354H62.0753H62.3481H62.5344H62.5744H62.7474H62.9204H63.0934H63.2464H63.3995H63.5326H63.6657H63.7388C68.0537 42.7579 70.7982 49.1207 71.6565 55.8628C72.5148 62.6049 71.452 69.4524 68.5904 75.6171C65.7287 81.7819 61.1846 87.0133 55.481 90.7094C49.7773 94.4055 43.146 96.4161 36.3501 96.5097C36.7937 96.0927 37.2373 95.6779 37.6809 95.2654C44.5672 88.3845 48.6222 79.171 49.0448 69.4454C49.4673 59.7197 46.2268 50.1893 39.9633 42.737L40.0698 42.8834Z" fill="#E31E24"/>
<path d="M86.0972 40.9739V62.6267H118.39V40.9739H110.558V56.6512H106.166V40.9739H98.321V56.6512H93.9292V40.9739H86.0972ZM142.512 50.0436C142.528 48.7666 142.351 47.4945 141.986 46.2706C141.65 45.1427 141.063 44.1054 140.269 43.2363C139.407 42.3389 138.348 41.6553 137.175 41.24C135.663 40.728 134.073 40.4848 132.477 40.5214C131.139 40.5096 129.802 40.6232 128.485 40.8608C127.466 41.0407 126.463 41.2988 125.483 41.6326C124.806 41.8459 124.144 42.1038 123.501 42.4045L124.898 47.4817C125.439 47.155 126.015 46.8894 126.615 46.6898C127.298 46.4239 128.004 46.2212 128.724 46.0843C129.482 45.9268 130.253 45.8443 131.026 45.8381C131.766 45.8304 132.503 45.9267 133.216 46.1242C133.625 46.2389 133.993 46.47 134.274 46.7897C134.457 47.04 134.551 47.3447 134.54 47.6547V47.841C132.841 47.8277 131.145 47.9996 129.483 48.3534C128.074 48.6301 126.723 49.1479 125.49 49.8839C124.418 50.5373 123.528 51.4505 122.902 52.5389C122.276 53.6897 121.958 54.9822 121.977 56.2919C121.974 57.178 122.148 58.0558 122.489 58.8737C122.806 59.6871 123.291 60.4242 123.913 61.0363C124.545 61.6927 125.31 62.2075 126.156 62.5468C127.096 62.9258 128.102 63.118 129.117 63.1124C130.249 63.1193 131.373 62.9348 132.444 62.5668C133.485 62.1892 134.418 61.5607 135.159 60.7369H135.292L135.724 62.62H142.864C142.791 62.2407 142.711 61.7883 142.658 61.2426C142.605 60.697 142.585 60.0914 142.545 59.4327C142.505 58.7739 142.545 58.1018 142.545 57.3366L142.512 50.0436ZM134.799 54.4753V55.0808C134.785 55.2639 134.761 55.4461 134.726 55.6265C134.608 56.0196 134.393 56.3767 134.101 56.6645C133.822 56.9489 133.489 57.1751 133.123 57.3299C132.766 57.4872 132.381 57.5709 131.991 57.5761C131.407 57.6015 130.832 57.4201 130.368 57.0638C130.156 56.8644 129.99 56.6212 129.882 56.3511C129.774 56.081 129.726 55.7905 129.742 55.5C129.735 55.0572 129.858 54.622 130.094 54.2475C130.33 53.8729 130.67 53.5752 131.073 53.3906C132.25 52.8848 133.527 52.6571 134.806 52.7252L134.799 54.4753ZM146.91 62.6267H153.91L154.176 54.8013C154.216 54.2557 154.236 53.5969 154.25 52.8051C154.263 52.0132 154.25 51.1282 154.29 50.1833C154.329 49.2384 154.329 48.2802 154.363 47.3353H154.536C154.687 48.0318 154.857 48.8059 155.048 49.6576C155.221 50.5094 155.407 51.3544 155.574 52.2062C155.74 53.0579 155.933 53.8498 156.119 54.5618L158.116 62.2208H163.885L166.26 54.2956C166.467 53.6302 166.64 52.9648 166.773 52.5256C166.906 52.0864 167.019 51.6007 167.112 51.1947L167.398 50.0635C167.472 49.7042 167.585 49.2916 167.698 48.8392C167.811 48.3867 167.964 47.8211 168.15 47.1823H168.283C168.283 47.8477 168.323 48.5131 168.323 49.1785C168.323 49.8439 168.383 50.5559 168.396 51.2347C168.41 51.9134 168.436 52.5655 168.456 53.1378C168.476 53.71 168.496 54.2291 168.516 54.6682L168.723 62.6533H176.135L174.911 41.0005H164.823L162.9 48.0007C162.634 48.9811 162.388 49.9238 162.161 50.8288C161.955 51.7337 161.749 52.5456 161.576 53.2842H161.443C161.27 52.6187 161.123 51.9067 160.97 51.2879C160.817 50.6691 160.684 50.0236 160.558 49.478C160.431 48.9323 160.312 48.4599 160.199 48.0806L158.542 41.0271H148.361L146.91 62.6267ZM196.231 56.3784C195.718 56.5689 195.188 56.7071 194.647 56.7909C194.023 56.8689 193.394 56.9067 192.764 56.9041C192.086 56.9034 191.412 56.7956 190.768 56.5847C190.156 56.3795 189.592 56.0511 189.111 55.6198C188.605 55.1763 188.211 54.6201 187.96 53.9962C187.664 53.2739 187.513 52.5008 187.514 51.7204C187.512 50.7558 187.741 49.8046 188.179 48.9456C188.595 48.1917 189.216 47.571 189.969 47.1556C190.787 46.7156 191.702 46.4869 192.631 46.4902C193.301 46.4818 193.969 46.5398 194.627 46.6632C195.101 46.7479 195.563 46.8863 196.005 47.0758L197.156 41.2068C196.616 41.0382 196.068 40.9005 195.512 40.7942C194.948 40.6661 194.374 40.5837 193.796 40.548C193.21 40.4881 192.664 40.4748 192.139 40.4748C190.25 40.4434 188.372 40.7568 186.596 41.3997C185.098 41.934 183.735 42.7904 182.603 43.9084C181.561 44.9465 180.752 46.1939 180.228 47.5682C179.694 48.9705 179.426 50.4597 179.436 51.96C179.394 54.0308 179.886 56.0775 180.866 57.9022C181.808 59.5509 183.219 60.8827 184.919 61.7284C186.861 62.6514 188.991 63.1072 191.141 63.0592C191.906 63.089 192.672 63.0801 193.436 63.0326C194.127 62.964 194.813 62.8573 195.492 62.7132C196.041 62.5993 196.578 62.4344 197.096 62.2208L196.231 56.3784ZM219.641 50.0436C219.661 48.7673 219.488 47.4952 219.128 46.2706C218.786 45.1409 218.192 44.1034 217.391 43.2363C216.527 42.3421 215.468 41.659 214.297 41.24C212.779 40.7265 211.182 40.4832 209.579 40.5214C208.241 40.5084 206.904 40.622 205.587 40.8608C204.561 41.0385 203.551 41.2966 202.566 41.6326C201.903 41.851 201.255 42.1087 200.623 42.4045L202.04 47.4817C202.572 47.1514 203.142 46.8856 203.737 46.6898C204.427 46.4238 205.14 46.2211 205.866 46.0843C206.617 45.9278 207.382 45.8454 208.149 45.8381C208.888 45.8276 209.626 45.924 210.338 46.1242C210.75 46.2341 211.119 46.4661 211.396 46.7897C211.585 47.0382 211.686 47.3426 211.682 47.6547V47.841C209.983 47.8268 208.287 47.9986 206.625 48.3534C205.218 48.6357 203.868 49.1531 202.632 49.8839C201.572 50.5364 200.696 51.4507 200.091 52.5389C199.465 53.6897 199.146 54.9822 199.166 56.2919C199.163 57.178 199.337 58.0558 199.678 58.8737C199.983 59.6836 200.454 60.4204 201.062 61.0363C201.691 61.6966 202.456 62.2121 203.304 62.5468C204.245 62.9275 205.251 63.1197 206.266 63.1124C207.397 63.1177 208.522 62.9333 209.593 62.5668C210.63 62.18 211.56 61.5529 212.308 60.7369H212.441L212.873 62.62H220C219.9 62.1661 219.831 61.7059 219.794 61.2426C219.736 60.697 219.698 60.0936 219.681 59.4327C219.681 58.7672 219.641 58.1018 219.641 57.3366V50.0436ZM211.942 54.4753V55.0808C211.931 55.2655 211.899 55.4485 211.849 55.6265C211.738 56.0183 211.53 56.3756 211.243 56.6645C210.974 56.9566 210.648 57.191 210.285 57.3534C209.923 57.5158 209.531 57.6029 209.134 57.6094C208.549 57.6377 207.973 57.456 207.51 57.097C207.295 56.9003 207.127 56.6575 207.018 56.3867C206.91 56.116 206.864 55.8242 206.884 55.5333C206.878 55.0905 207 54.6553 207.236 54.2807C207.473 53.9062 207.813 53.6085 208.215 53.4239C209.391 52.9141 210.669 52.6863 211.948 52.7585L211.942 54.4753Z" fill="#E31E24"/>
<path d="M87.4348 77.4521V84.7318H86.104V76.3408H91.4873V77.4654L87.4348 77.4521Z" fill="#444444"/>
<path d="M99.6652 77.4254C100.315 78.3302 100.664 79.4159 100.664 80.5296C100.664 81.6433 100.315 82.729 99.6652 83.6338C99.3537 84.0146 98.9589 84.3189 98.5113 84.5231C98.0637 84.7273 97.5751 84.826 97.0833 84.8116C96.5492 84.8432 96.0168 84.7247 95.5464 84.4695C95.076 84.2143 94.6864 83.8327 94.4217 83.3676V87.5398H93.0908V76.3408H94.2886V77.6716C94.5464 77.2209 94.9303 76.8555 95.3932 76.6202C95.8915 76.358 96.447 76.2231 97.0102 76.2276C97.5155 76.2057 98.019 76.3027 98.4801 76.5107C98.9413 76.7187 99.3472 77.032 99.6652 77.4254ZM98.5939 82.7488C99.0387 82.0892 99.2764 81.3118 99.2764 80.5163C99.2764 79.7207 99.0387 78.9433 98.5939 78.2838C98.3799 78.0197 98.1096 77.8067 97.8028 77.6605C97.496 77.5142 97.1604 77.4383 96.8205 77.4383C96.4806 77.4383 96.145 77.5142 95.8382 77.6605C95.5314 77.8067 95.2611 78.0197 95.0472 78.2838C94.6066 78.9413 94.3714 79.7149 94.3714 80.5063C94.3714 81.2977 94.6066 82.0713 95.0472 82.7288C95.2519 83.0011 95.5187 83.2205 95.8255 83.3687C96.1322 83.5168 96.47 83.5895 96.8105 83.5805C97.1506 83.5941 97.489 83.5277 97.7987 83.3867C98.1085 83.2457 98.3808 83.0341 98.5939 82.7687V82.7488Z" fill="#444444"/>
<path d="M102.367 87.7262V86.5817C102.549 86.615 102.734 86.6306 102.919 86.6282C103.26 86.6484 103.596 86.5364 103.857 86.3155C104.144 86.0108 104.352 85.6408 104.463 85.2375L104.629 84.7384L101.521 76.3408H102.939L105.294 83.3677L107.703 76.3408H109.127L105.833 85.2641C105.611 86.009 105.22 86.6923 104.689 87.2604C104.198 87.6459 103.582 87.8377 102.959 87.7994C102.76 87.7936 102.561 87.7691 102.367 87.7262Z" fill="#444444"/>
<path d="M115.935 77.4521H111.743V84.7318H110.412V76.3408H117.293V84.7318H115.962L115.935 77.4521Z" fill="#444444"/>
<path d="M124.812 77.4521H120.619V84.7318H119.289V76.3408H126.169V84.7318H124.838L124.812 77.4521Z" fill="#444444"/>
<path d="M128.544 84.1331C128.288 83.9111 128.085 83.6343 127.95 83.3234C127.816 83.0124 127.753 82.6751 127.766 82.3365C127.751 82.0087 127.818 81.6824 127.959 81.3864C128.101 81.0905 128.313 80.834 128.577 80.6396C129.26 80.1799 130.063 79.9301 130.886 79.921L133.242 79.7812V79.0826C133.255 78.8581 133.217 78.6337 133.13 78.4262C133.044 78.2187 132.911 78.0336 132.743 77.8848C132.333 77.5809 131.828 77.4324 131.319 77.4656C130.882 77.4514 130.451 77.5748 130.088 77.8183C129.926 77.9265 129.786 78.0656 129.678 78.2278C129.569 78.3899 129.494 78.5718 129.456 78.7632H128.125C128.136 78.4136 128.227 78.0712 128.391 77.7621C128.555 77.453 128.787 77.1855 129.07 76.9798C129.71 76.4904 130.5 76.2366 131.306 76.2612C132.159 76.2171 133.001 76.4764 133.681 76.9931C133.974 77.2341 134.207 77.5398 134.362 77.8862C134.517 78.2327 134.589 78.6103 134.573 78.9894V84.7586H133.289V83.2747C133.05 83.7453 132.677 84.1344 132.217 84.3926C131.725 84.6739 131.167 84.8187 130.6 84.8118C129.855 84.8468 129.122 84.6051 128.544 84.1331ZM132.597 83.0418C132.811 82.8553 132.982 82.6239 133.097 82.364C133.212 82.1041 133.268 81.8221 133.262 81.538V80.8725L131.066 81.0123C129.789 81.0921 129.15 81.5357 129.15 82.3431C129.144 82.5264 129.185 82.7082 129.267 82.872C129.35 83.0358 129.472 83.1765 129.622 83.2814C129.99 83.5433 130.435 83.6766 130.886 83.6607C131.516 83.6779 132.129 83.4569 132.603 83.0418H132.597Z" fill="#444444"/>
<path d="M147.189 84.7318H145.433L141.759 80.6661H141.699V84.7318H140.369V76.3408H141.699V80.0738H141.759L145.399 76.3408H147.083L143.13 80.3334L147.189 84.7318Z" fill="#444444"/>
<path d="M148.853 83.6604C148.172 82.7641 147.803 81.669 147.803 80.5429C147.803 79.4169 148.172 78.3218 148.853 77.4254C149.602 76.6778 150.617 76.2578 151.675 76.2578C152.733 76.2578 153.748 76.6778 154.496 77.4254C155.179 78.3224 155.549 79.4187 155.549 80.5463C155.549 81.6738 155.179 82.7701 154.496 83.6671C153.747 84.4139 152.731 84.8326 151.673 84.8314C150.615 84.8301 149.601 84.409 148.853 83.6604ZM153.511 82.802C153.944 82.1268 154.174 81.3416 154.174 80.5396C154.174 79.7376 153.944 78.9524 153.511 78.2772C153.279 78.0214 152.996 77.8171 152.681 77.6772C152.365 77.5374 152.023 77.4651 151.678 77.4651C151.333 77.4651 150.991 77.5374 150.676 77.6772C150.36 77.8171 150.077 78.0214 149.845 78.2772C149.412 78.9524 149.182 79.7376 149.182 80.5396C149.182 81.3416 149.412 82.1268 149.845 82.802C150.077 83.0578 150.36 83.2621 150.676 83.402C150.991 83.5418 151.333 83.6141 151.678 83.6141C152.023 83.6141 152.365 83.5418 152.681 83.402C152.996 83.2621 153.279 83.0578 153.511 82.802Z" fill="#444444"/>
<path d="M157.151 84.7318V76.3408H158.781L161.822 82.9485H161.882L164.93 76.3408H166.5V84.7318H165.169V78.743H165.109L162.368 84.4922H161.296L158.555 78.743H158.495V84.7318H157.151Z" fill="#444444"/>
<path d="M174.033 77.4521H169.841V84.7318H168.51V76.3408H175.39V84.7318H174.059L174.033 77.4521Z" fill="#444444"/>
<path d="M177.766 84.1331C177.51 83.9111 177.307 83.6344 177.172 83.3234C177.037 83.0124 176.974 82.6751 176.987 82.3365C176.973 82.0087 177.039 81.6824 177.181 81.3864C177.322 81.0905 177.535 80.834 177.799 80.6396C178.488 80.1762 179.298 79.9262 180.128 79.921L182.484 79.7812V79.0826C182.497 78.8582 182.458 78.6337 182.372 78.4262C182.286 78.2187 182.153 78.0336 181.985 77.8848C181.575 77.5809 181.07 77.4324 180.561 77.4656C180.123 77.4514 179.693 77.5748 179.33 77.8183C179.167 77.9265 179.028 78.0656 178.919 78.2278C178.811 78.3899 178.736 78.5718 178.697 78.7632H177.367C177.378 78.4136 177.469 78.0712 177.633 77.7621C177.796 77.453 178.029 77.1855 178.311 76.9798C178.952 76.4904 179.742 76.2366 180.547 76.2612C181.401 76.2171 182.242 76.4764 182.923 76.9931C183.216 77.2341 183.449 77.5398 183.604 77.8862C183.759 78.2327 183.831 78.6103 183.815 78.9894V84.7586H182.53V83.2747C182.292 83.7453 181.919 84.1344 181.459 84.3926C180.967 84.6739 180.409 84.8187 179.842 84.8118C179.09 84.8518 178.349 84.6098 177.766 84.1331ZM181.818 83.0418C182.033 82.8553 182.204 82.6239 182.319 82.364C182.434 82.1041 182.49 81.8221 182.484 81.538V80.8725L180.288 81.0123C179.01 81.0921 178.371 81.5357 178.371 82.3431C178.366 82.5264 178.406 82.7082 178.489 82.872C178.571 83.0358 178.693 83.1765 178.844 83.2814C179.218 83.5476 179.67 83.6811 180.128 83.6607C180.751 83.6729 181.356 83.4522 181.825 83.0418H181.818Z" fill="#444444"/>
<path d="M191.374 80.9256H187.102V84.7318H185.771V76.3408H187.102V79.821H191.374V76.3408H192.705V84.7318H191.374V80.9256Z" fill="#444444"/>
<path d="M194.714 84.7318V76.3408H196.045V82.649H196.098L200.423 76.3408H201.754V84.7318H200.423V78.4236H200.363L196.038 84.7318H194.714Z" fill="#444444"/>
<path d="M203.784 84.732V76.341H205.115V82.6492H205.174L209.5 76.341H210.831V84.732H209.5V78.4238H209.44L205.115 84.732H203.784ZM205.833 72.6479C205.818 73.0672 205.963 73.4764 206.239 73.7925C206.383 73.9408 206.555 74.0587 206.746 74.1392C206.936 74.2197 207.14 74.2612 207.347 74.2612C207.554 74.2612 207.758 74.2197 207.949 74.1392C208.139 74.0587 208.311 73.9408 208.455 73.7925C208.731 73.4764 208.876 73.0672 208.861 72.6479H209.859C209.876 72.9699 209.825 73.2917 209.71 73.593C209.596 73.8943 209.42 74.1685 209.194 74.398C208.687 74.831 208.043 75.0689 207.377 75.0689C206.711 75.0689 206.067 74.831 205.56 74.398C205.335 74.1692 205.159 73.8962 205.045 73.5961C204.93 73.296 204.879 72.9754 204.895 72.6546L205.833 72.6479Z" fill="#444444"/>
</svg>
