<svg width="102" height="102" viewBox="0 0 102 102" fill="none" xmlns="http://www.w3.org/2000/svg">
<g clip-path="url(#clip0_344_7038)">
<path fill-rule="evenodd" clip-rule="evenodd" d="M21.1252 72.1249C13.1453 64.145 8.75049 53.5351 8.75049 42.2498C8.75049 18.9532 27.7037 0 51.0003 0V0.000647226L51.0004 0C74.2968 0 93.2502 18.9532 93.2502 42.2498C93.2502 53.5351 88.8556 64.145 80.8755 72.1249L51.0003 102L21.1252 72.1249Z" fill="url(#paint0_linear_344_7038)"/>
<path fill-rule="evenodd" clip-rule="evenodd" d="M51.0002 72.5469C34.2943 72.5469 20.7031 58.9556 20.7031 42.2499C20.7031 25.544 34.2943 11.9529 51.0002 11.9529V11.9547L51.0004 11.9529C67.7061 11.9529 81.2974 25.544 81.2974 42.2499C81.2974 58.9558 67.7062 72.5469 51.0004 72.5469L51.0002 72.5451V72.5469Z" fill="url(#paint1_linear_344_7038)"/>
<path d="M51.0004 17.9292L47.0161 42.2498L51.0004 66.5704C64.4108 66.5704 75.321 55.6603 75.321 42.2498C75.321 28.8393 64.4106 17.9292 51.0004 17.9292Z" fill="white"/>
<path d="M26.6797 42.2498C26.6797 55.6601 37.5898 66.5704 51.0003 66.5704V17.9292C37.5898 17.9292 26.6797 28.8393 26.6797 42.2498Z" fill="white"/>
<path fill-rule="evenodd" clip-rule="evenodd" d="M44.0632 29.8224C46.6127 26.9123 49.1696 25.0945 49.2772 25.0186L51.0003 23.8022L51.0004 23.802L51.0005 23.8021L51.0006 23.802V23.8021L52.7238 25.0186C52.8314 25.0947 55.3883 26.9123 57.9378 29.8224C59.469 31.5701 60.6979 33.3668 61.5904 35.163C62.7699 37.5368 63.3682 39.921 63.3682 42.2498C63.3682 44.5786 62.7699 46.9628 61.5904 49.3366C60.6979 51.1327 59.469 52.9296 57.9378 54.6771C55.3883 57.5872 52.8314 59.4051 52.7238 59.481L51.0006 60.6974V60.6976L51.0005 60.6975L51.0004 60.6976L51.0003 60.6974L49.2772 59.481C49.1696 59.4051 46.6127 57.5872 44.0632 54.6771C42.532 52.9294 41.3031 51.1327 40.4106 49.3366C39.2309 46.9628 38.6328 44.5786 38.6328 42.2498C38.6328 39.921 39.2311 37.5368 40.4106 35.163C41.3031 33.3668 42.532 31.5701 44.0632 29.8224Z" fill="url(#paint2_linear_344_7038)"/>
</g>
<defs>
<linearGradient id="paint0_linear_344_7038" x1="93.2502" y1="36.4287" x2="8.01009" y2="37.4058" gradientUnits="userSpaceOnUse">
<stop stop-color="#FFD25A"/>
<stop offset="1" stop-color="#FFC52B"/>
</linearGradient>
<linearGradient id="paint1_linear_344_7038" x1="81.2974" y1="33.5937" x2="20.1759" y2="34.4394" gradientUnits="userSpaceOnUse">
<stop stop-color="#FFD25A"/>
<stop offset="1" stop-color="#FFC52B"/>
</linearGradient>
<linearGradient id="paint2_linear_344_7038" x1="63.3682" y1="36.9791" x2="38.4149" y2="37.2105" gradientUnits="userSpaceOnUse">
<stop stop-color="#FFD25A"/>
<stop offset="1" stop-color="#FFC52B"/>
</linearGradient>
<clipPath id="clip0_344_7038">
<rect width="102" height="102" fill="white"/>
</clipPath>
</defs>
</svg>
