<svg width="102" height="102" viewBox="0 0 102 102" fill="none" xmlns="http://www.w3.org/2000/svg">
<g clip-path="url(#clip0_344_7056)">
<path d="M87.9791 51.5166L85.6968 45.0315L61.0783 69.6508C58.673 72.0607 55.4685 73.3859 52.0641 73.3859C48.6604 73.3859 45.456 72.0607 43.0507 69.6508L24.9889 51.589C22.579 49.1837 21.253 45.9793 21.253 42.5756C21.253 39.1712 22.579 35.9667 24.9889 33.5615C27.3942 31.1523 30.5987 29.8263 34.0023 29.8263C37.4068 29.8263 40.6112 31.1523 43.0165 33.5615L52.0641 42.6052L76.3052 18.3649L74.6726 13.7325L73.9209 9.23631C73.4494 6.3548 71.5491 3.96664 68.8505 2.84843C66.1394 1.72244 63.1139 2.07105 60.7382 3.77522L48.9281 12.3256L36.9858 3.75343C34.5891 2.06249 31.555 1.72633 28.8603 2.85699C26.1834 3.97909 24.3003 6.36336 23.8287 9.22775L21.5168 23.6213L7.03767 26.0266C4.16083 26.4989 1.77267 28.3984 0.650568 31.097C-0.471533 33.8042 -0.122919 36.8383 1.58124 39.214L10.1277 51.0241L1.55556 62.9656C-0.131478 65.3624 -0.471533 68.4011 0.659128 71.0911C1.78512 73.7688 4.16472 75.6511 7.02911 76.1235L21.4234 78.4393L23.8287 92.9137C24.2964 95.7867 26.1834 98.171 28.8603 99.2931C31.5589 100.423 34.5976 100.088 37.0161 98.3748L48.8262 89.8245L60.7382 98.3748C62.1957 99.416 63.8913 99.9514 65.6126 99.9514C66.7043 99.9514 67.8007 99.7389 68.8505 99.3016C71.5538 98.1795 73.4494 95.7914 73.9209 92.9223L76.2367 78.5287L90.7112 76.1235C93.5842 75.6511 95.9645 73.7688 97.0905 71.0911C98.2212 68.4011 97.885 65.3624 96.1723 62.9361L87.9791 51.5166Z" fill="#FFC107"/>
<path d="M52.0642 64.8869C50.9763 64.8869 49.8885 64.4706 49.0597 63.6419L30.998 45.5801C29.3366 43.9187 29.3366 41.2325 30.998 39.5712C32.6601 37.909 35.3455 37.909 37.0077 39.5712L52.0642 54.6277L94.7445 11.9474C96.4066 10.2861 99.092 10.2861 100.754 11.9474C102.416 13.6088 102.416 16.295 100.754 17.9564L55.0687 63.6419C54.2399 64.4706 53.1521 64.8869 52.0642 64.8869Z" fill="url(#paint0_linear_344_7056)"/>
</g>
<defs>
<linearGradient id="paint0_linear_344_7056" x1="102" y1="30.0535" x2="29.1341" y2="31.3977" gradientUnits="userSpaceOnUse">
<stop stop-color="#FFD25A"/>
<stop offset="1" stop-color="#FFC52B"/>
</linearGradient>
<clipPath id="clip0_344_7056">
<rect width="102" height="102" fill="white"/>
</clipPath>
</defs>
</svg>
