<svg width="60" height="61" viewBox="0 0 60 61" fill="none" xmlns="http://www.w3.org/2000/svg">
<g clip-path="url(#clip0_15_904)">
<path d="M15.2689 23.545L13.5313 20.5354C13.2011 19.9638 12.4704 19.7678 11.8986 20.0979C11.327 20.4279 11.131 21.1589 11.4611 21.7306L13.1988 24.7402C13.4203 25.1236 13.8219 25.3379 14.2351 25.3379C14.4378 25.3379 14.6434 25.2863 14.8314 25.1776C15.4031 24.8476 15.599 24.1167 15.2689 23.545Z" fill="#20B84F"/>
<path d="M14.7978 4.43271C14.2259 4.10271 13.495 4.29853 13.1651 4.87017L7.791 14.1783C7.57748 14.5481 7.57748 15.0037 7.791 15.3734L9.35158 18.0764C9.57307 18.4598 9.97467 18.6742 10.3879 18.6742C10.5906 18.6742 10.7962 18.6225 10.9842 18.5138C11.556 18.1838 11.7518 17.4528 11.4217 16.8812L10.2061 14.7759L15.2351 6.06536C15.5653 5.49372 15.3695 4.76271 14.7978 4.43271Z" fill="#20B84F"/>
<path d="M59.5175 27.6133L51.8321 14.3019C51.6186 13.9321 51.224 13.7042 50.797 13.7042H36.1378L28.7261 0.866821C28.5126 0.496978 28.118 0.269165 27.691 0.269165H12.32C11.8931 0.269165 11.4984 0.496978 11.285 0.866821L3.59959 14.1783C3.38607 14.5481 3.38607 15.0037 3.59959 15.3735L11.285 28.6851C11.4985 29.055 11.8931 29.2828 12.3201 29.2828H26.9794L34.3911 42.1203C34.6046 42.4902 34.9992 42.718 35.4262 42.718H50.7971C51.224 42.718 51.6187 42.4902 51.8322 42.1203L59.5176 28.8087C59.7309 28.4388 59.7309 27.9832 59.5175 27.6133ZM13.0101 26.8923L6.01471 14.7759L13.0101 2.65967H27.001L33.9963 14.7759L27.001 26.8923H13.0101ZM50.107 40.3273H36.1162L29.1208 28.211L36.1162 16.0948H50.107L57.1022 28.211L50.107 40.3273Z" fill="#20B84F"/>
<path d="M33.2943 45.1649L25.6088 31.8532C25.3953 31.4834 25.0007 31.2556 24.5737 31.2556H9.20291C8.776 31.2556 8.38131 31.4834 8.16779 31.8532L0.482402 45.1649C0.268887 45.5347 0.268887 45.9904 0.482402 46.3601L8.16779 59.6715C8.38131 60.0414 8.77588 60.2692 9.20291 60.2692H24.5738C25.0007 60.2692 25.3954 60.0414 25.6089 59.6715L33.2944 46.36C33.5078 45.9902 33.5078 45.5346 33.2943 45.1649ZM23.8837 57.8788H9.89291L2.89764 45.7624L9.89291 33.6461H23.8837L30.8791 45.7624L23.8837 57.8788Z" fill="#20B84F"/>
</g>
<defs>
<clipPath id="clip0_15_904">
<rect width="60" height="60" fill="white" transform="translate(0 0.269165)"/>
</clipPath>
</defs>
</svg>
