<svg width="102" height="102" viewBox="0 0 102 102" fill="none" xmlns="http://www.w3.org/2000/svg">
<g clip-path="url(#clip0_344_7051)">
<path d="M27 18C22.0294 18 18 22.0294 18 27C18 31.9706 22.0294 36 27 36C31.9706 36 36 31.9706 36 27C36 22.0294 31.9706 18 27 18Z" fill="url(#paint0_linear_344_7051)"/>
<path d="M2.48701 38.3112L2.4844 38.3124L28.0916 92.6082C30.3176 98.1082 35.7114 102 42 102C45.7264 102 49.1368 100.631 51.7628 98.3738L51.7684 98.3808L92.2044 65.7534C98.0864 62.028 102 55.4628 102 48C102 38.9554 96.2526 31.2282 88.2182 28.2784L42.4366 4.65419C40.1306 3.55179 35.263 -5.83433e-06 27 -6.55671e-06C12.112 -7.85826e-06 7.85826e-06 12.112 6.55671e-06 27C6.2038e-06 31.0368 0.892004 34.8686 2.48701 38.3112ZM45 90L39 90L39 84L45 84L45 90ZM81 39C85.9626 39 90 43.0372 90 48C90 52.9626 85.9626 57 81 57C76.0374 57 72 52.9626 72 48C72 43.0372 76.0374 39 81 39ZM54 27C54 23.166 53.195 19.5172 51.748 16.2108L74.5948 28.0002C66.1382 30.7148 60 38.6534 60 48C60 58.827 68.2364 67.7658 78.7724 68.8818L56.9862 86.461C56.701 78.439 50.0904 72 42 72C36.2722 72 31.286 75.2282 28.76 79.9596L15.2452 51.3038C18.8006 53.0304 22.7892 54 27 54C41.888 54 54 41.888 54 27ZM27 12C35.271 12 42 18.729 42 27C42 35.271 35.271 42 27 42C18.729 42 12 35.271 12 27C12 18.729 18.729 12 27 12Z" fill="url(#paint1_linear_344_7051)"/>
<path d="M81 45C79.3431 45 78 46.3431 78 48C78 49.6569 79.3431 51 81 51C82.6569 51 84 49.6569 84 48C84 46.3431 82.6569 45 81 45Z" fill="url(#paint2_linear_344_7051)"/>
</g>
<defs>
<linearGradient id="paint0_linear_344_7051" x1="18" y1="29.5714" x2="36.1566" y2="29.3202" gradientUnits="userSpaceOnUse">
<stop stop-color="#FFD25A"/>
<stop offset="1" stop-color="#FFC52B"/>
</linearGradient>
<linearGradient id="paint1_linear_344_7051" x1="6.62488e-06" y1="65.5712" x2="102.888" y2="64.1477" gradientUnits="userSpaceOnUse">
<stop stop-color="#FFD25A"/>
<stop offset="1" stop-color="#FFC52B"/>
</linearGradient>
<linearGradient id="paint2_linear_344_7051" x1="78" y1="48.8571" x2="84.0522" y2="48.7734" gradientUnits="userSpaceOnUse">
<stop stop-color="#FFD25A"/>
<stop offset="1" stop-color="#FFC52B"/>
</linearGradient>
<clipPath id="clip0_344_7051">
<rect width="102" height="102" fill="white" transform="translate(102 102) rotate(-180)"/>
</clipPath>
</defs>
</svg>
